<svg width="446" height="64" viewBox="0 0 446 64" fill="none" xmlns="http://www.w3.org/2000/svg">
<rect width="446" height="64" rx="8" fill="#616161" fill-opacity="0.4"/>
<path d="M216.319 20.05L215.669 22H211C208.794 22 207 23.7937 207 26V42C207 44.2062 208.794 46 211 46H235C237.206 46 239 44.2062 239 42V26C239 23.7937 237.206 22 235 22H230.331L229.681 20.05C229.275 18.825 228.131 18 226.837 18H219.163C217.869 18 216.725 18.825 216.319 20.05ZM223 28C224.591 28 226.117 28.6321 227.243 29.7574C228.368 30.8826 229 32.4087 229 34C229 35.5913 228.368 37.1174 227.243 38.2426C226.117 39.3679 224.591 40 223 40C221.409 40 219.883 39.3679 218.757 38.2426C217.632 37.1174 217 35.5913 217 34C217 32.4087 217.632 30.8826 218.757 29.7574C219.883 28.6321 221.409 28 223 28Z" fill="#616161"/>
</svg>
