<svg width="147" height="48" viewBox="0 0 147 48" fill="none" xmlns="http://www.w3.org/2000/svg">
<g filter="url(#filter0_d_412_302)">
<path d="M4 8C4 3.58172 7.58172 0 12 0H135C139.418 0 143 3.58172 143 8V32C143 36.4183 139.418 40 135 40H12C7.58172 40 4 36.4183 4 32V8Z" fill="url(#paint0_linear_412_302)" shape-rendering="crispEdges"/>
<path d="M35.7486 12.4545H38.8239V21.9006C38.8239 22.9612 38.5705 23.8892 38.0639 24.6847C37.562 25.4801 36.8589 26.1004 35.9545 26.5455C35.0502 26.9858 33.9967 27.206 32.794 27.206C31.5866 27.206 30.5308 26.9858 29.6264 26.5455C28.7221 26.1004 28.0189 25.4801 27.517 24.6847C27.0152 23.8892 26.7642 22.9612 26.7642 21.9006V12.4545H29.8395V21.6378C29.8395 22.1918 29.9602 22.6842 30.2017 23.1151C30.4479 23.5459 30.7936 23.8845 31.2386 24.1307C31.6837 24.3769 32.2022 24.5 32.794 24.5C33.3906 24.5 33.9091 24.3769 34.3494 24.1307C34.7945 23.8845 35.1378 23.5459 35.3793 23.1151C35.6255 22.6842 35.7486 22.1918 35.7486 21.6378V12.4545ZM41.2972 31.0909V16.0909H44.2802V17.9233H44.4151C44.5477 17.6297 44.7395 17.3314 44.9904 17.0284C45.2461 16.7206 45.5775 16.465 45.9847 16.2614C46.3967 16.053 46.908 15.9489 47.5188 15.9489C48.3143 15.9489 49.0482 16.1572 49.7205 16.5739C50.3929 16.9858 50.9303 17.6084 51.3327 18.4418C51.7352 19.2704 51.9364 20.3097 51.9364 21.5597C51.9364 22.7765 51.7399 23.804 51.3469 24.642C50.9587 25.4754 50.4284 26.1075 49.756 26.5384C49.0884 26.9645 48.3403 27.1776 47.5117 27.1776C46.9246 27.1776 46.4251 27.0805 46.0131 26.8864C45.6059 26.6922 45.2721 26.4484 45.0117 26.1548C44.7513 25.8565 44.5524 25.5559 44.4151 25.2528H44.3228V31.0909H41.2972ZM44.2589 21.5455C44.2589 22.1941 44.3488 22.7599 44.5288 23.2429C44.7087 23.7259 44.9691 24.1023 45.31 24.3722C45.6509 24.6373 46.0652 24.7699 46.5529 24.7699C47.0453 24.7699 47.462 24.6349 47.8029 24.3651C48.1438 24.0904 48.4019 23.7116 48.5771 23.2287C48.757 22.741 48.8469 22.1799 48.8469 21.5455C48.8469 20.9157 48.7594 20.3617 48.5842 19.8835C48.409 19.4053 48.1509 19.0312 47.81 18.7614C47.4691 18.4915 47.0501 18.3565 46.5529 18.3565C46.0605 18.3565 45.6438 18.4867 45.3029 18.7472C44.9667 19.0076 44.7087 19.3769 44.5288 19.8551C44.3488 20.3333 44.2589 20.8968 44.2589 21.5455ZM56.979 12.4545V27H53.9535V12.4545H56.979ZM64.3317 27.2131C63.2285 27.2131 62.2744 26.9787 61.4695 26.5099C60.6693 26.0365 60.0514 25.3783 59.6158 24.5355C59.1802 23.688 58.9624 22.7055 58.9624 21.5881C58.9624 20.4612 59.1802 19.4763 59.6158 18.6335C60.0514 17.786 60.6693 17.1278 61.4695 16.6591C62.2744 16.1856 63.2285 15.9489 64.3317 15.9489C65.4349 15.9489 66.3866 16.1856 67.1868 16.6591C67.9917 17.1278 68.612 17.786 69.0476 18.6335C69.4832 19.4763 69.701 20.4612 69.701 21.5881C69.701 22.7055 69.4832 23.688 69.0476 24.5355C68.612 25.3783 67.9917 26.0365 67.1868 26.5099C66.3866 26.9787 65.4349 27.2131 64.3317 27.2131ZM64.3459 24.8693C64.8478 24.8693 65.2668 24.7273 65.603 24.4432C65.9392 24.1544 66.1925 23.7614 66.3629 23.2642C66.5381 22.767 66.6257 22.2012 66.6257 21.5668C66.6257 20.9323 66.5381 20.3665 66.3629 19.8693C66.1925 19.3722 65.9392 18.9792 65.603 18.6903C65.2668 18.4015 64.8478 18.2571 64.3459 18.2571C63.8393 18.2571 63.4131 18.4015 63.0675 18.6903C62.7266 18.9792 62.4685 19.3722 62.2933 19.8693C62.1229 20.3665 62.0376 20.9323 62.0376 21.5668C62.0376 22.2012 62.1229 22.767 62.2933 23.2642C62.4685 23.7614 62.7266 24.1544 63.0675 24.4432C63.4131 24.7273 63.8393 24.8693 64.3459 24.8693ZM74.7791 27.206C74.0831 27.206 73.4628 27.0852 72.9183 26.8438C72.3738 26.5975 71.9429 26.2353 71.6257 25.7571C71.3132 25.2741 71.157 24.6728 71.157 23.9531C71.157 23.3471 71.2682 22.8381 71.4908 22.4261C71.7133 22.0142 72.0163 21.6828 72.3999 21.4318C72.7834 21.1809 73.219 20.9915 73.7067 20.8636C74.1991 20.7358 74.7152 20.6458 75.255 20.5938C75.8894 20.5275 76.4008 20.4659 76.7891 20.4091C77.1773 20.3475 77.459 20.2576 77.6342 20.1392C77.8094 20.0208 77.897 19.8456 77.897 19.6136V19.571C77.897 19.1212 77.755 18.7732 77.4709 18.527C77.1915 18.2808 76.7938 18.1577 76.2777 18.1577C75.7332 18.1577 75.3 18.2784 74.978 18.5199C74.656 18.7566 74.4429 19.0549 74.3388 19.4148L71.5405 19.1875C71.6825 18.5246 71.9619 17.9517 72.3786 17.4688C72.7952 16.9811 73.3326 16.607 73.9908 16.3466C74.6536 16.0814 75.4207 15.9489 76.2919 15.9489C76.898 15.9489 77.478 16.0199 78.032 16.1619C78.5907 16.304 79.0855 16.5241 79.5163 16.8224C79.9519 17.1207 80.2952 17.5043 80.5462 17.973C80.7971 18.437 80.9226 18.9934 80.9226 19.642V27H78.0533V25.4872H77.968C77.7929 25.8281 77.5585 26.1288 77.2649 26.3892C76.9714 26.6449 76.6186 26.8461 76.2067 26.9929C75.7947 27.1349 75.3189 27.206 74.7791 27.206ZM75.6456 25.1179C76.0907 25.1179 76.4837 25.0303 76.8246 24.8551C77.1655 24.6752 77.433 24.4337 77.6271 24.1307C77.8213 23.8277 77.9183 23.4844 77.9183 23.1009V21.9432C77.8236 22.0047 77.6934 22.0616 77.5277 22.1136C77.3667 22.161 77.1844 22.206 76.9808 22.2486C76.7772 22.2865 76.5736 22.322 76.37 22.3551C76.1664 22.3835 75.9818 22.4096 75.8161 22.4332C75.4609 22.4853 75.1508 22.5682 74.8857 22.6818C74.6205 22.7955 74.4145 22.9493 74.2678 23.1435C74.121 23.3329 74.0476 23.5696 74.0476 23.8537C74.0476 24.2656 74.1967 24.5805 74.495 24.7983C74.7981 25.0114 75.1816 25.1179 75.6456 25.1179ZM87.2898 27.1776C86.4612 27.1776 85.7107 26.9645 85.0384 26.5384C84.3707 26.1075 83.8404 25.4754 83.4474 24.642C83.0592 23.804 82.8651 22.7765 82.8651 21.5597C82.8651 20.3097 83.0663 19.2704 83.4688 18.4418C83.8712 17.6084 84.4063 16.9858 85.0739 16.5739C85.7462 16.1572 86.4825 15.9489 87.2827 15.9489C87.8935 15.9489 88.4025 16.053 88.8097 16.2614C89.2216 16.465 89.553 16.7206 89.804 17.0284C90.0597 17.3314 90.2538 17.6297 90.3864 17.9233H90.4787V12.4545H93.4972V27H90.5142V25.2528H90.3864C90.2443 25.5559 90.0431 25.8565 89.7827 26.1548C89.527 26.4484 89.1932 26.6922 88.7812 26.8864C88.3741 27.0805 87.8769 27.1776 87.2898 27.1776ZM88.2486 24.7699C88.7363 24.7699 89.1482 24.6373 89.4844 24.3722C89.8253 24.1023 90.0857 23.7259 90.2656 23.2429C90.4503 22.7599 90.5426 22.1941 90.5426 21.5455C90.5426 20.8968 90.4527 20.3333 90.2727 19.8551C90.0928 19.3769 89.8324 19.0076 89.4915 18.7472C89.1506 18.4867 88.7363 18.3565 88.2486 18.3565C87.7514 18.3565 87.3324 18.4915 86.9915 18.7614C86.6506 19.0312 86.3925 19.4053 86.2173 19.8835C86.0421 20.3617 85.9545 20.9157 85.9545 21.5455C85.9545 22.1799 86.0421 22.741 86.2173 23.2287C86.3973 23.7116 86.6553 24.0904 86.9915 24.3651C87.3324 24.6349 87.7514 24.7699 88.2486 24.7699Z" fill="white"/>
<path d="M114.307 11.3296C113.861 10.8901 113.136 10.8901 112.689 11.3296L108.118 15.8296C107.671 16.269 107.671 16.9827 108.118 17.4222C108.564 17.8616 109.289 17.8616 109.736 17.4222L112.357 14.8417V22.2491C112.357 22.8714 112.868 23.3741 113.5 23.3741C114.132 23.3741 114.643 22.8714 114.643 22.2491V14.8417L117.264 17.4222C117.711 17.8616 118.436 17.8616 118.882 17.4222C119.329 16.9827 119.329 16.269 118.882 15.8296L114.311 11.3296H114.307ZM107.786 23.3741C107.786 22.7519 107.275 22.2491 106.643 22.2491C106.011 22.2491 105.5 22.7519 105.5 23.3741V25.6241C105.5 27.4874 107.036 28.9991 108.929 28.9991H118.071C119.964 28.9991 121.5 27.4874 121.5 25.6241V23.3741C121.5 22.7519 120.989 22.2491 120.357 22.2491C119.725 22.2491 119.214 22.7519 119.214 23.3741V25.6241C119.214 26.2464 118.704 26.7491 118.071 26.7491H108.929C108.296 26.7491 107.786 26.2464 107.786 25.6241V23.3741Z" fill="white"/>
</g>
<defs>
<filter id="filter0_d_412_302" x="0" y="0" width="147" height="48" filterUnits="userSpaceOnUse" color-interpolation-filters="sRGB">
<feFlood flood-opacity="0" result="BackgroundImageFix"/>
<feColorMatrix in="SourceAlpha" type="matrix" values="0 0 0 0 0 0 0 0 0 0 0 0 0 0 0 0 0 0 127 0" result="hardAlpha"/>
<feOffset dy="4"/>
<feGaussianBlur stdDeviation="2"/>
<feComposite in2="hardAlpha" operator="out"/>
<feColorMatrix type="matrix" values="0 0 0 0 0 0 0 0 0 0 0 0 0 0 0 0 0 0 0.25 0"/>
<feBlend mode="normal" in2="BackgroundImageFix" result="effect1_dropShadow_412_302"/>
<feBlend mode="normal" in="SourceGraphic" in2="effect1_dropShadow_412_302" result="shape"/>
</filter>
<linearGradient id="paint0_linear_412_302" x1="4" y1="20" x2="143" y2="20" gradientUnits="userSpaceOnUse">
<stop stop-color="#0D4E3C"/>
<stop offset="1" stop-color="#B0CA64"/>
</linearGradient>
</defs>
</svg>
