<svg width="229" height="229" viewBox="0 0 229 229" fill="none" xmlns="http://www.w3.org/2000/svg">
<path d="M119.826 166.154L123.979 139.196C90.0544 125.865 82.4619 111.172 84.9376 75.5465C84.9749 75.0094 85.4317 74.5846 85.9683 74.6291C105.621 76.2591 126.482 104.562 126.482 104.562C126.482 104.562 145.055 61.4144 180.437 50.9634C181.018 50.7918 181.617 51.2022 181.693 51.8031C188.239 102.977 174.596 121.428 131.488 139.196L126.664 167.751C126.566 168.331 125.992 168.701 125.424 168.552L120.56 167.274C120.065 167.144 119.748 166.661 119.826 166.154Z" fill="#86C019"/>
<path d="M123.979 139.196L119.826 166.154C119.748 166.661 120.065 167.144 120.56 167.274L125.424 168.552C125.992 168.701 126.566 168.331 126.664 167.751L131.488 139.196M123.979 139.196C90.0544 125.865 82.4619 111.172 84.9376 75.5465C84.9749 75.0094 85.4317 74.5846 85.9683 74.6291C105.621 76.2591 126.482 104.562 126.482 104.562M123.979 139.196C128.029 125.435 126.482 104.562 126.482 104.562M126.482 104.562C126.482 104.562 145.055 61.4144 180.437 50.9634C181.018 50.7918 181.617 51.2022 181.693 51.8031C188.239 102.977 174.596 121.428 131.488 139.196M126.482 104.562C126.482 104.562 128.032 125.74 131.488 139.196" stroke="#0D4E3C" stroke-width="6"/>
<path d="M35.582 84.7279V53.4367C35.582 50.9156 37.6258 48.8719 40.1468 48.8719C42.6679 48.8719 44.7116 50.9156 44.7116 53.4367V84.6635C44.7116 86.0753 45.8561 87.2198 47.2679 87.2198C48.6797 87.2198 49.8242 86.0753 49.8242 84.6635V53.0715C49.8242 50.7521 51.7045 48.8719 54.0239 48.8719C56.3432 48.8719 58.2235 50.7521 58.2235 53.0715V84.4809C58.2235 85.9936 59.4497 87.2198 60.9624 87.2198C62.475 87.2198 63.7012 85.9936 63.7012 84.4809V52.1585C63.7012 50.3434 65.1727 48.8719 66.9879 48.8719C68.8031 48.8719 70.2746 50.3434 70.2746 52.1586V84.9331C70.2746 91.7766 68.3273 98.4788 64.6601 104.257L64.4263 104.625C60.3848 110.993 58.3538 118.43 58.5976 125.968L60.1629 174.375C60.3006 178.632 56.881 182.159 52.6211 182.159C48.3133 182.159 44.8864 178.556 45.0951 174.253L47.4253 126.212C47.7977 118.534 45.6818 110.856 41.4743 104.422C37.6595 98.5877 35.582 91.6983 35.582 84.7279Z" fill="#C67552"/>
<path d="M77.608 173.813C115.656 197.898 177.2 178.066 185.448 114.054" stroke="#0D4E3C" stroke-width="15" stroke-linecap="round"/>
<path d="M80.365 48.8631C92.6116 36.791 127.325 33.9559 148.932 48.8631" stroke="#0D4E3C" stroke-width="15" stroke-linecap="round"/>
<path d="M114.308 7.5C173.303 7.50008 221.115 55.2713 221.115 114.183C221.115 173.094 173.303 220.865 114.308 220.865C55.3118 220.865 7.50009 173.094 7.5 114.183C7.5 55.2713 55.3117 7.5 114.308 7.5Z" stroke="#0D4E3C" stroke-width="15"/>
<rect width="5.71439" height="36.4219" transform="matrix(0.9846 0.174823 -0.174896 0.984587 125.659 131.404)" fill="#0D4E3C"/>
<path d="M132.543 135.064C138.583 110.089 160.119 81.7493 160.119 81.7493" stroke="#0D4E3C" stroke-width="6" stroke-linecap="round"/>
</svg>
